<svg width="20" height="20" viewBox="0 0 20 20" fill="none" xmlns="http://www.w3.org/2000/svg">
<path d="M16.2542 14.9525V8.635C16.5221 8.62523 16.7797 8.52905 16.9884 8.36083C17.1972 8.19262 17.346 7.96139 17.4125 7.70167C17.4869 7.43671 17.4698 7.1544 17.364 6.90036C17.2581 6.64632 17.0697 6.43539 16.8292 6.30167L10.6208 2.71833C10.4313 2.61182 10.2175 2.55588 10 2.55588C9.78255 2.55588 9.56875 2.61182 9.37917 2.71833L3.17084 6.30167C2.9303 6.43539 2.74188 6.64632 2.63603 6.90036C2.53018 7.1544 2.51309 7.43671 2.5875 7.70167C2.65579 7.96981 2.81186 8.20739 3.03085 8.37654C3.24984 8.54569 3.51914 8.63667 3.79584 8.635H3.90417V14.9433H3.80417C3.47265 14.9433 3.15471 15.075 2.92029 15.3095C2.68587 15.5439 2.55417 15.8618 2.55417 16.1933C2.55417 16.5249 2.68587 16.8428 2.92029 17.0772C3.15471 17.3116 3.47265 17.4433 3.80417 17.4433H16.1958C16.509 17.4248 16.8038 17.2893 17.0216 17.0635C17.2395 16.8378 17.3645 16.5384 17.3718 16.2248C17.3791 15.9112 17.2683 15.6062 17.0613 15.3705C16.8542 15.1349 16.5661 14.9856 16.2542 14.9525ZM3.79584 7.80167C3.70399 7.8005 3.61505 7.7693 3.54259 7.71286C3.47013 7.65641 3.41812 7.5778 3.39451 7.48903C3.3709 7.40026 3.37699 7.30621 3.41183 7.22122C3.44668 7.13623 3.50837 7.06498 3.5875 7.01833L9.79584 3.44417C9.85744 3.40697 9.92804 3.38731 10 3.38731C10.072 3.38731 10.1426 3.40697 10.2042 3.44417L16.4167 7.01833C16.4991 7.06277 16.5642 7.13371 16.6014 7.2197C16.6386 7.30568 16.6458 7.40169 16.6217 7.49223C16.5976 7.58277 16.5437 7.66255 16.4687 7.71869C16.3937 7.77484 16.302 7.80407 16.2083 7.80167H3.79584ZM15.4208 8.635V14.9433H12.4167V8.635H15.4208ZM11.5792 8.635V14.9433H8.57084V8.635H11.5792ZM7.7375 8.635V14.9433H4.7375V8.635H7.7375ZM16.1958 16.61H3.80417C3.69366 16.61 3.58768 16.5661 3.50954 16.488C3.4314 16.4098 3.3875 16.3038 3.3875 16.1933C3.3875 16.0828 3.4314 15.9768 3.50954 15.8987C3.58768 15.8206 3.69366 15.7767 3.80417 15.7767H16.1958C16.3063 15.7767 16.4123 15.8206 16.4905 15.8987C16.5686 15.9768 16.6125 16.0828 16.6125 16.1933C16.6125 16.3038 16.5686 16.4098 16.4905 16.488C16.4123 16.5661 16.3063 16.61 16.1958 16.61Z" fill="#6B5DC7"/>
</svg>
